<svg width="100" height="180" viewBox="0 0 100 180" fill="none" xmlns="http://www.w3.org/2000/svg">
<g opacity="0.7">
<path fill-rule="evenodd" clip-rule="evenodd" d="M88.688 42.6199C94.1081 41.2443 99.6028 44.5806 100.883 50.024L121.549 137.931C122.63 142.527 120.348 147.253 116.077 149.265L71.2931 170.366C69.5868 171.169 67.6879 171.474 65.8157 171.245L44.0551 168.581C39.8635 168.068 36.4461 164.977 35.516 160.858L15.2909 71.2918C14.0971 66.0052 17.3321 60.7297 22.5853 59.3965L29.8559 57.5512L46.5661 53.3103L60.9554 49.6583L75.3447 46.0064L88.688 42.6199Z" fill="#A64CED"/>
<path d="M46.5661 53.3103C44.4391 44.9294 42.97 27.4608 54.1101 24.6335C65.2502 21.8062 72.9082 37.704 75.3447 46.0064M46.5661 53.3103L60.9554 49.6583M46.5661 53.3103L29.8559 57.5512M75.3447 46.0064L88.688 42.6199C94.1081 41.2443 99.6028 44.5806 100.883 50.024L121.549 137.931C122.63 142.527 120.348 147.253 116.077 149.265L71.2931 170.366C69.5868 171.169 67.6879 171.474 65.8157 171.245L44.0551 168.581C39.8635 168.068 36.4461 164.977 35.516 160.858L15.2909 71.2918C14.0971 66.0052 17.3321 60.7297 22.5853 59.3965L29.8559 57.5512M75.3447 46.0064L60.9554 49.6583M60.9554 49.6583C56.9857 36.6832 45.9216 11.4982 33.4224 14.5591C20.9232 17.62 25.8367 44.4959 29.8559 57.5512" stroke="#A64CED" stroke-width="2" stroke-linecap="round" stroke-linejoin="round"/>
<path d="M67.029 160.066L61.4821 140.134M44.8411 80.3399L55.9351 120.203" stroke="white" stroke-width="2" stroke-linecap="round" stroke-linejoin="round"/>
</g>
</svg>
